<?xml version="1.0" encoding="UTF-8" standalone="no"?>
<!DOCTYPE svg PUBLIC "-//W3C//DTD SVG 1.1//EN" "http://www.w3.org/Graphics/SVG/1.1/DTD/svg11.dtd">
<svg xmlns="http://www.w3.org/2000/svg" version="1.1" viewBox="0 0 81 77" width="81.0pt" height="77.0pt">
<path d="M 36.33 4.65 C 38.92 5.65 39.55 9.16 42.14 9.97 C 46.85 11.74 50.44 14.40 53.94 17.94 C 56.74 18.04 59.16 17.67 61.55 19.44 C 65.43 21.79 67.01 27.11 65.26 31.23 C 64.52 33.03 62.51 34.08 61.00 35.19 C 60.96 39.51 60.43 43.14 59.09 47.23 C 65.23 49.98 71.62 51.82 77.48 55.20 C 68.70 53.14 60.34 49.75 52.28 45.73 C 49.59 44.21 45.89 42.41 44.40 39.59 C 43.38 37.80 44.91 36.16 46.51 35.51 C 51.18 33.46 56.74 34.20 61.16 33.11 C 64.99 31.80 64.93 26.56 63.44 23.54 C 61.86 20.71 57.17 18.03 54.19 20.16 C 50.13 23.59 46.15 29.87 40.79 31.75 C 38.86 32.50 37.27 30.78 36.97 29.02 C 35.99 22.26 38.24 16.37 38.53 9.97 C 38.14 3.06 24.61 4.54 24.82 10.97 C 26.03 16.58 29.95 23.52 29.70 29.87 C 29.39 31.62 28.14 32.64 26.46 31.55 C 21.32 28.34 17.95 21.38 14.00 17.02 C 11.57 14.75 8.51 16.69 6.64 18.65 C 4.37 21.22 3.04 25.32 6.23 27.79 C 10.96 30.75 18.54 32.13 22.81 36.27 C 24.12 37.71 24.12 39.29 22.52 40.49 C 18.18 43.42 11.39 43.22 6.51 44.65 C 3.75 45.88 3.98 49.59 5.03 51.93 C 6.03 54.48 8.97 57.63 11.94 56.14 C 16.07 53.39 19.25 48.37 24.17 46.11 C 25.74 45.42 27.97 45.54 28.45 47.48 C 30.18 53.41 25.42 60.21 26.20 65.75 C 28.44 69.41 36.20 68.67 37.50 64.51 C 37.37 60.24 34.47 55.00 36.08 50.17 C 37.17 48.37 39.15 48.26 40.95 49.03 C 45.08 50.73 48.70 54.05 51.93 57.08 C 57.21 62.34 62.40 66.87 65.85 73.61 C 60.69 68.91 56.50 63.31 51.30 58.64 C 48.00 61.18 44.95 62.88 41.05 64.32 C 38.16 65.36 37.44 68.50 34.21 69.20 C 29.56 70.39 26.03 69.29 24.01 64.74 C 19.80 63.06 16.11 61.10 12.62 58.18 C 10.06 57.96 7.84 58.07 5.96 56.03 C 2.49 52.54 2.06 48.22 4.08 43.81 C 3.40 39.51 3.10 35.44 4.06 31.14 C 4.90 28.06 2.56 26.05 2.89 22.98 C 3.81 17.78 8.24 13.81 13.72 14.66 C 16.63 12.70 19.56 11.03 22.80 9.65 C 25.68 4.59 30.82 2.71 36.33 4.65 Z" fill="#ff8600" />
</svg>